<svg xmlns="http://www.w3.org/2000/svg" id="Layer_1" data-name="Layer 1" viewBox="0 0 482.261 482.264"><defs><style>.cls-1{fill:#fff}</style></defs><path d="m444.784 218.505-90.531 90.5a127.953 127.953 0 0 1-181 0c-7.875-7.844-14.031-16.688-19.438-25.813l42.063-42.063c2-2.016 4.469-3.172 6.828-4.531a62.934 62.934 0 0 0 15.797 27.156 64.061 64.061 0 0 0 90.5 0l90.5-90.5a63.999 63.999 0 0 0-90.5-90.516l-32.188 32.219a160.515 160.515 0 0 0-81.641-8.891l68.578-68.578a128.004 128.004 0 0 1 181.032 181.017z" class="cls-1"/><path d="m205.456 367.318-32.203 32.219a64.01 64.01 0 0 1-90.516-90.531l90.516-90.5a64.033 64.033 0 0 1 90.5 0 63.353 63.353 0 0 1 15.813 27.125c2.375-1.375 4.813-2.5 6.813-4.5l42.063-42.047a125.912 125.912 0 0 0-19.438-25.828 128.002 128.002 0 0 0-181.016 0l-90.5 90.5a128.003 128.003 0 0 0 181.016 181.031l68.594-68.594a160.476 160.476 0 0 1-81.642-8.875z" class="cls-1"/></svg>