<svg xmlns="http://www.w3.org/2000/svg" viewBox="0 0 406.548 428.788">
  <g fill="#48c1c4">
    <path d="M26.01 307.464c5.39 68.03 63.415 121.324 211.152 121.324-58.907 0-104.765-26.64-130.847-72.367-37.136-11.599-63.256-28.585-80.304-48.957ZM286.307 21.4C163.502-75.529-79.82 181.001 26.01 307.463 16.49 187.289 171.26 21.145 286.307 21.399Zm120.241 210.503c0-154.088-53.418-210.356-120.241-210.504 21.27 16.788 38.913 44.194 50.509 84.701 41.835 26.47 69.732 72.903 69.732 125.803Z"/>
    <path d="M82.183 255.473c0 39.41 8.53 73.592 24.132 100.947 34.05 10.634 77.32 16.753 131.42 16.753-63.114 0-100.797-43.992-100.797-117.674 0-64.553 53.329-117.069 118.875-117.069 52.924 0 95.98 42.787 95.98 95.376 0-52.356-5.454-94.437-14.977-127.706a149.154 149.154 0 0 0-80.013-23.285c-96.287 0-174.62 77.455-174.62 172.658Z"/>
    <circle cx="244.366" cy="248.571" r="43.387"/>
  </g>
</svg>
