<svg xmlns="http://www.w3.org/2000/svg" viewBox="0 0 57.614 67.051">
  <g transform="translate(-741 -4156)">
    <path d="M48.72,105.206,30.284,91.174a2.438,2.438,0,0,0-2.951,0L8.9,105.205a3.1,3.1,0,0,1-4.337-.588L.634,99.459a3.094,3.094,0,0,1,.587-4.338l24.1-18.347a5.748,5.748,0,0,1,6.964,0l24.1,18.347a3.094,3.094,0,0,1,.59,4.336h0l-3.927,5.16a3.094,3.094,0,0,1-4.336.589h0" transform="translate(740.999 4117.211)" fill="#ffffff"/>
    <path d="M48.719,67.465,34.359,56.536a9.17,9.17,0,0,0-11.106,0L8.9,67.465a3.094,3.094,0,0,1-4.337-.588L.632,61.718a3.094,3.094,0,0,1,.587-4.336h0L16.239,45.95a20.75,20.75,0,0,1,25.136,0L56.394,57.384a3.1,3.1,0,0,1,.588,4.336h0l-3.924,5.157a3.1,3.1,0,0,1-4.337.588" transform="translate(741 4134.599)" fill="#8caef4"/>
    <path d="M58.5,12.356A12.355,12.355,0,1,1,46.143,0h0A12.355,12.355,0,0,1,58.5,12.356" transform="translate(723.664 4155.999)" fill="#8caef4"/>
  </g>
</svg>
