<svg xmlns="http://www.w3.org/2000/svg" viewBox="0 0 277.333 277.333"><g data-name="Layer 2"><g data-name="Layer 1"><path d="M184.414 35.52c-59.756-.133-140.145 86.164-135.2 148.584 8.855 10.582 22.422 19.404 41.71 25.429-8.104-14.21-12.534-31.964-12.534-52.433 0-49.45 40.687-89.68 90.7-89.68a77.471 77.471 0 0 1 41.559 12.094c-6.023-21.04-15.187-35.275-26.235-43.995z"/><path d="M0 0v277.333h277.333V0zm171.571 174.228a22.585 22.585 0 1 1 13.771-20.812 22.65 22.65 0 0 1-13.77 20.812zm39.078-94.714c4.947 17.28 7.78 39.137 7.78 66.332a49.753 49.753 0 0 0-49.854-49.54c-34.045 0-61.745 27.278-61.745 60.807 0 38.272 19.573 61.121 52.356 61.121-28.1 0-50.576-3.178-68.261-8.701 13.547 23.751 37.366 37.588 67.963 37.588-76.736 0-106.875-27.681-109.674-63.017-54.97-65.685 71.414-198.93 135.2-148.585 34.709.077 62.454 29.303 62.454 109.338a77.302 77.302 0 0 0-36.219-65.343z"/><path d="M162.774 130.848a22.493 22.493 0 0 0-16.037 6.637 22.561 22.561 0 1 1 24.834 36.743 22.585 22.585 0 0 0-8.796-43.38z"/><path d="M140.207 153.416a22.494 22.494 0 0 1 6.53-15.931 22.58 22.58 0 0 0 24.834 36.743 22.625 22.625 0 0 1-31.364-20.812z"/></g></g></svg>